<mxfile host="65bd71144e" pages="1">
    <diagram name="Page-1" id="Ex_LOpiX1bTE0HjQlcWH">
        <mxGraphModel dx="1436" dy="1667" grid="1" gridSize="10" guides="1" tooltips="1" connect="1" arrows="1" fold="1" page="1" pageScale="1" pageWidth="850" pageHeight="1100" math="0" shadow="0">
            <root>
                <mxCell id="0"/>
                <mxCell id="1" parent="0"/>
                <mxCell id="QeVsfK4hTUTbqEL9YIG4-1" value="User" style="whiteSpace=wrap;html=1;align=center;fillColor=#647687;strokeColor=#314354;fontColor=#ffffff;" vertex="1" parent="1">
                    <mxGeometry x="60" y="30" width="100" height="40" as="geometry"/>
                </mxCell>
                <mxCell id="QeVsfK4hTUTbqEL9YIG4-4" value="&lt;font color=&quot;#ffffff&quot;&gt;d&lt;/font&gt;" style="ellipse;whiteSpace=wrap;html=1;aspect=fixed;fillColor=none;strokeColor=#b85450;" parent="1" vertex="1">
                    <mxGeometry x="100" y="120" width="20" height="20" as="geometry"/>
                </mxCell>
                <mxCell id="QeVsfK4hTUTbqEL9YIG4-6" value="" style="endArrow=none;html=1;rounded=0;exitX=0.5;exitY=1;exitDx=0;exitDy=0;entryX=0.5;entryY=0;entryDx=0;entryDy=0;fillColor=#f8cecc;strokeColor=#b85450;" parent="1" target="QeVsfK4hTUTbqEL9YIG4-4" edge="1" source="QeVsfK4hTUTbqEL9YIG4-1">
                    <mxGeometry relative="1" as="geometry">
                        <mxPoint x="110" y="100" as="sourcePoint"/>
                        <mxPoint x="270" y="100" as="targetPoint"/>
                    </mxGeometry>
                </mxCell>
                <mxCell id="QeVsfK4hTUTbqEL9YIG4-10" value="" style="endArrow=none;html=1;rounded=0;entryX=0;entryY=0.5;entryDx=0;entryDy=0;fillColor=#f8cecc;strokeColor=#b85450;" parent="1" target="QeVsfK4hTUTbqEL9YIG4-17" edge="1">
                    <mxGeometry relative="1" as="geometry">
                        <mxPoint x="120" y="130" as="sourcePoint"/>
                        <mxPoint x="180" y="190.5" as="targetPoint"/>
                        <Array as="points">
                            <mxPoint x="200" y="200"/>
                        </Array>
                    </mxGeometry>
                </mxCell>
                <mxCell id="QeVsfK4hTUTbqEL9YIG4-11" value="" style="endArrow=none;html=1;rounded=0;entryX=0.5;entryY=0;entryDx=0;entryDy=0;fillColor=#f8cecc;strokeColor=#b85450;" parent="1" target="QeVsfK4hTUTbqEL9YIG4-16" edge="1">
                    <mxGeometry relative="1" as="geometry">
                        <mxPoint x="110" y="140" as="sourcePoint"/>
                        <mxPoint x="110" y="230" as="targetPoint"/>
                    </mxGeometry>
                </mxCell>
                <mxCell id="QeVsfK4hTUTbqEL9YIG4-13" value="" style="endArrow=none;html=1;rounded=0;exitX=1;exitY=0.5;exitDx=0;exitDy=0;fillColor=#f8cecc;strokeColor=#b85450;" parent="1" source="QeVsfK4hTUTbqEL9YIG4-15" edge="1">
                    <mxGeometry relative="1" as="geometry">
                        <mxPoint x="20" y="180" as="sourcePoint"/>
                        <mxPoint x="100" y="129.5" as="targetPoint"/>
                        <Array as="points">
                            <mxPoint y="210"/>
                        </Array>
                    </mxGeometry>
                </mxCell>
                <mxCell id="QeVsfK4hTUTbqEL9YIG4-15" value="Admin" style="whiteSpace=wrap;html=1;align=center;fillColor=#647687;strokeColor=#314354;fontColor=#ffffff;" parent="1" vertex="1">
                    <mxGeometry x="-220" y="190" width="100" height="40" as="geometry"/>
                </mxCell>
                <mxCell id="QeVsfK4hTUTbqEL9YIG4-16" value="Instructor" style="whiteSpace=wrap;html=1;align=center;fillColor=#647687;strokeColor=#314354;fontColor=#ffffff;" parent="1" vertex="1">
                    <mxGeometry x="60" y="250" width="100" height="40" as="geometry"/>
                </mxCell>
                <mxCell id="QeVsfK4hTUTbqEL9YIG4-17" value="Student" style="whiteSpace=wrap;html=1;align=center;fillColor=#647687;strokeColor=#314354;fontColor=#ffffff;" parent="1" vertex="1">
                    <mxGeometry x="350" y="180" width="100" height="40" as="geometry"/>
                </mxCell>
                <mxCell id="QeVsfK4hTUTbqEL9YIG4-91" style="edgeStyle=orthogonalEdgeStyle;rounded=0;orthogonalLoop=1;jettySize=auto;html=1;" parent="1" edge="1">
                    <mxGeometry relative="1" as="geometry">
                        <mxPoint x="130" y="660" as="targetPoint"/>
                        <mxPoint x="130" y="660" as="sourcePoint"/>
                    </mxGeometry>
                </mxCell>
                <mxCell id="QeVsfK4hTUTbqEL9YIG4-21" value="Course" style="whiteSpace=wrap;html=1;align=center;fillColor=#647687;strokeColor=#314354;fontColor=#ffffff;" parent="1" vertex="1">
                    <mxGeometry x="10" y="600" width="185" height="47.5" as="geometry"/>
                </mxCell>
                <mxCell id="QeVsfK4hTUTbqEL9YIG4-24" value="enrolls" style="shape=rhombus;perimeter=rhombusPerimeter;whiteSpace=wrap;html=1;align=center;fillColor=#6d8764;strokeColor=#3A5431;" parent="1" vertex="1">
                    <mxGeometry x="345" y="400" width="110" height="50" as="geometry"/>
                </mxCell>
                <mxCell id="QeVsfK4hTUTbqEL9YIG4-32" value="" style="endArrow=none;html=1;rounded=0;exitX=0.5;exitY=1;exitDx=0;exitDy=0;fillColor=#d5e8d4;strokeColor=#82b366;" parent="1" source="QeVsfK4hTUTbqEL9YIG4-15" target="QeVsfK4hTUTbqEL9YIG4-33" edge="1">
                    <mxGeometry relative="1" as="geometry">
                        <mxPoint x="-180" y="240" as="sourcePoint"/>
                        <mxPoint x="-22" y="440" as="targetPoint"/>
                    </mxGeometry>
                </mxCell>
                <mxCell id="QeVsfK4hTUTbqEL9YIG4-36" value="1" style="edgeLabel;html=1;align=center;verticalAlign=middle;resizable=0;points=[];" parent="QeVsfK4hTUTbqEL9YIG4-32" vertex="1" connectable="0">
                    <mxGeometry x="0.744" relative="1" as="geometry">
                        <mxPoint as="offset"/>
                    </mxGeometry>
                </mxCell>
                <mxCell id="QeVsfK4hTUTbqEL9YIG4-33" value="administrates&amp;nbsp;" style="shape=rhombus;perimeter=rhombusPerimeter;whiteSpace=wrap;html=1;align=center;fillColor=#6d8764;strokeColor=#3A5431;" parent="1" vertex="1">
                    <mxGeometry x="-230" y="400" width="120" height="60" as="geometry"/>
                </mxCell>
                <mxCell id="QeVsfK4hTUTbqEL9YIG4-34" value="" style="endArrow=none;html=1;rounded=0;exitX=0.5;exitY=1;exitDx=0;exitDy=0;fillColor=#d5e8d4;strokeColor=#82b366;entryX=0.11;entryY=-0.013;entryDx=0;entryDy=0;entryPerimeter=0;" parent="1" source="QeVsfK4hTUTbqEL9YIG4-33" target="QeVsfK4hTUTbqEL9YIG4-21" edge="1">
                    <mxGeometry relative="1" as="geometry">
                        <mxPoint x="-60" y="520" as="sourcePoint"/>
                        <mxPoint x="50" y="600" as="targetPoint"/>
                        <Array as="points">
                            <mxPoint x="30" y="460"/>
                        </Array>
                    </mxGeometry>
                </mxCell>
                <mxCell id="QeVsfK4hTUTbqEL9YIG4-37" value="N" style="edgeLabel;html=1;align=center;verticalAlign=middle;resizable=0;points=[];" parent="QeVsfK4hTUTbqEL9YIG4-34" vertex="1" connectable="0">
                    <mxGeometry x="-0.7619" y="-2" relative="1" as="geometry">
                        <mxPoint as="offset"/>
                    </mxGeometry>
                </mxCell>
                <mxCell id="QeVsfK4hTUTbqEL9YIG4-35" value="" style="endArrow=none;html=1;rounded=0;exitX=0.5;exitY=1;exitDx=0;exitDy=0;entryX=0.5;entryY=0;entryDx=0;entryDy=0;" parent="1" source="QeVsfK4hTUTbqEL9YIG4-16" target="QeVsfK4hTUTbqEL9YIG4-38" edge="1">
                    <mxGeometry relative="1" as="geometry">
                        <mxPoint x="80" y="330" as="sourcePoint"/>
                        <mxPoint x="110" y="370" as="targetPoint"/>
                    </mxGeometry>
                </mxCell>
                <mxCell id="QeVsfK4hTUTbqEL9YIG4-40" value="N" style="edgeLabel;html=1;align=center;verticalAlign=middle;resizable=0;points=[];" parent="QeVsfK4hTUTbqEL9YIG4-35" vertex="1" connectable="0">
                    <mxGeometry x="0.652" y="4" relative="1" as="geometry">
                        <mxPoint as="offset"/>
                    </mxGeometry>
                </mxCell>
                <mxCell id="QeVsfK4hTUTbqEL9YIG4-38" value="teaches" style="shape=rhombus;perimeter=rhombusPerimeter;whiteSpace=wrap;html=1;align=center;fillColor=#6d8764;strokeColor=#3A5431;" parent="1" vertex="1">
                    <mxGeometry x="50" y="395" width="120" height="60" as="geometry"/>
                </mxCell>
                <mxCell id="QeVsfK4hTUTbqEL9YIG4-39" value="" style="endArrow=none;html=1;rounded=0;exitX=0.5;exitY=1;exitDx=0;exitDy=0;entryX=0.551;entryY=-0.029;entryDx=0;entryDy=0;fillColor=#d5e8d4;strokeColor=#82b366;entryPerimeter=0;" parent="1" source="QeVsfK4hTUTbqEL9YIG4-38" target="QeVsfK4hTUTbqEL9YIG4-21" edge="1">
                    <mxGeometry relative="1" as="geometry">
                        <mxPoint x="90" y="510" as="sourcePoint"/>
                        <mxPoint x="110" y="590" as="targetPoint"/>
                    </mxGeometry>
                </mxCell>
                <mxCell id="QeVsfK4hTUTbqEL9YIG4-41" value="N" style="edgeLabel;html=1;align=center;verticalAlign=middle;resizable=0;points=[];" parent="QeVsfK4hTUTbqEL9YIG4-39" vertex="1" connectable="0">
                    <mxGeometry x="-0.6486" y="-3" relative="1" as="geometry">
                        <mxPoint as="offset"/>
                    </mxGeometry>
                </mxCell>
                <mxCell id="QeVsfK4hTUTbqEL9YIG4-42" value="" style="endArrow=none;html=1;rounded=0;entryX=0.06;entryY=0.483;entryDx=0;entryDy=0;entryPerimeter=0;fillColor=#d5e8d4;strokeColor=#82b366;exitX=1;exitY=0.5;exitDx=0;exitDy=0;" parent="1" target="QeVsfK4hTUTbqEL9YIG4-44" edge="1" source="QeVsfK4hTUTbqEL9YIG4-21">
                    <mxGeometry relative="1" as="geometry">
                        <mxPoint x="200" y="630" as="sourcePoint"/>
                        <mxPoint x="425" y="614.5" as="targetPoint"/>
                    </mxGeometry>
                </mxCell>
                <mxCell id="QeVsfK4hTUTbqEL9YIG4-62" value="1" style="edgeLabel;html=1;align=center;verticalAlign=middle;resizable=0;points=[];" parent="QeVsfK4hTUTbqEL9YIG4-42" vertex="1" connectable="0">
                    <mxGeometry x="0.4206" y="2" relative="1" as="geometry">
                        <mxPoint as="offset"/>
                    </mxGeometry>
                </mxCell>
                <mxCell id="QeVsfK4hTUTbqEL9YIG4-44" value="contains" style="shape=rhombus;perimeter=rhombusPerimeter;whiteSpace=wrap;html=1;align=center;fillColor=#6d8764;strokeColor=#3A5431;" parent="1" vertex="1">
                    <mxGeometry x="383" y="592.5" width="110" height="55" as="geometry"/>
                </mxCell>
                <mxCell id="QeVsfK4hTUTbqEL9YIG4-45" value="" style="endArrow=none;html=1;rounded=0;exitX=1;exitY=0.5;exitDx=0;exitDy=0;entryX=0;entryY=0.5;entryDx=0;entryDy=0;fillColor=#d5e8d4;strokeColor=#82b366;" parent="1" source="QeVsfK4hTUTbqEL9YIG4-44" target="QeVsfK4hTUTbqEL9YIG4-46" edge="1">
                    <mxGeometry relative="1" as="geometry">
                        <mxPoint x="490" y="615" as="sourcePoint"/>
                        <mxPoint x="650" y="614.5" as="targetPoint"/>
                    </mxGeometry>
                </mxCell>
                <mxCell id="QeVsfK4hTUTbqEL9YIG4-63" value="N" style="edgeLabel;html=1;align=center;verticalAlign=middle;resizable=0;points=[];" parent="QeVsfK4hTUTbqEL9YIG4-45" vertex="1" connectable="0">
                    <mxGeometry x="-0.6073" y="-1" relative="1" as="geometry">
                        <mxPoint as="offset"/>
                    </mxGeometry>
                </mxCell>
                <mxCell id="QeVsfK4hTUTbqEL9YIG4-46" value="Assignment" style="whiteSpace=wrap;html=1;align=center;fillColor=#647687;strokeColor=#314354;fontColor=#ffffff;" parent="1" vertex="1">
                    <mxGeometry x="705" y="597.5" width="110" height="45" as="geometry"/>
                </mxCell>
                <mxCell id="QeVsfK4hTUTbqEL9YIG4-49" value="" style="endArrow=none;html=1;rounded=0;entryX=0.5;entryY=0;entryDx=0;entryDy=0;exitX=0.5;exitY=1;exitDx=0;exitDy=0;fillColor=#d5e8d4;strokeColor=#82b366;" parent="1" source="QeVsfK4hTUTbqEL9YIG4-50" target="QeVsfK4hTUTbqEL9YIG4-46" edge="1">
                    <mxGeometry relative="1" as="geometry">
                        <mxPoint x="625" y="500" as="sourcePoint"/>
                        <mxPoint x="700" y="500" as="targetPoint"/>
                    </mxGeometry>
                </mxCell>
                <mxCell id="QeVsfK4hTUTbqEL9YIG4-60" value="1" style="edgeLabel;html=1;align=center;verticalAlign=middle;resizable=0;points=[];" parent="QeVsfK4hTUTbqEL9YIG4-49" vertex="1" connectable="0">
                    <mxGeometry x="-0.4465" y="2" relative="1" as="geometry">
                        <mxPoint as="offset"/>
                    </mxGeometry>
                </mxCell>
                <mxCell id="QeVsfK4hTUTbqEL9YIG4-50" value="includes" style="shape=rhombus;perimeter=rhombusPerimeter;whiteSpace=wrap;html=1;align=center;fillColor=#6d8764;strokeColor=#3A5431;" parent="1" vertex="1">
                    <mxGeometry x="705" y="410" width="110" height="50" as="geometry"/>
                </mxCell>
                <mxCell id="QeVsfK4hTUTbqEL9YIG4-53" value="Submission" style="rounded=1;arcSize=10;whiteSpace=wrap;html=1;align=center;fillColor=#647687;strokeColor=#314354;fontColor=#ffffff;" parent="1" vertex="1">
                    <mxGeometry x="710" y="300" width="100" height="40" as="geometry"/>
                </mxCell>
                <mxCell id="QeVsfK4hTUTbqEL9YIG4-54" value="" style="endArrow=none;html=1;rounded=0;entryX=0;entryY=0.5;entryDx=0;entryDy=0;exitX=1;exitY=0.5;exitDx=0;exitDy=0;fillColor=#d5e8d4;strokeColor=#82b366;" parent="1" source="QeVsfK4hTUTbqEL9YIG4-17" target="QeVsfK4hTUTbqEL9YIG4-55" edge="1">
                    <mxGeometry relative="1" as="geometry">
                        <mxPoint x="290" y="209.5" as="sourcePoint"/>
                        <mxPoint x="450" y="209.5" as="targetPoint"/>
                    </mxGeometry>
                </mxCell>
                <mxCell id="QeVsfK4hTUTbqEL9YIG4-58" value="1" style="edgeLabel;html=1;align=center;verticalAlign=middle;resizable=0;points=[];" parent="QeVsfK4hTUTbqEL9YIG4-54" vertex="1" connectable="0">
                    <mxGeometry x="0.611" y="-1" relative="1" as="geometry">
                        <mxPoint as="offset"/>
                    </mxGeometry>
                </mxCell>
                <mxCell id="QeVsfK4hTUTbqEL9YIG4-55" value="turns in&amp;nbsp;" style="shape=rhombus;perimeter=rhombusPerimeter;whiteSpace=wrap;html=1;align=center;fillColor=#6d8764;strokeColor=#3A5431;" parent="1" vertex="1">
                    <mxGeometry x="700" y="170" width="120" height="60" as="geometry"/>
                </mxCell>
                <mxCell id="QeVsfK4hTUTbqEL9YIG4-57" value="" style="endArrow=none;html=1;rounded=0;entryX=0.5;entryY=0;entryDx=0;entryDy=0;exitX=0.5;exitY=1;exitDx=0;exitDy=0;fillColor=#d5e8d4;strokeColor=#82b366;" parent="1" source="QeVsfK4hTUTbqEL9YIG4-55" target="QeVsfK4hTUTbqEL9YIG4-53" edge="1">
                    <mxGeometry relative="1" as="geometry">
                        <mxPoint x="880" y="240" as="sourcePoint"/>
                        <mxPoint x="835" y="290" as="targetPoint"/>
                        <Array as="points"/>
                    </mxGeometry>
                </mxCell>
                <mxCell id="QeVsfK4hTUTbqEL9YIG4-59" value="1" style="edgeLabel;html=1;align=center;verticalAlign=middle;resizable=0;points=[];" parent="QeVsfK4hTUTbqEL9YIG4-57" vertex="1" connectable="0">
                    <mxGeometry x="-0.7017" y="2" relative="1" as="geometry">
                        <mxPoint as="offset"/>
                    </mxGeometry>
                </mxCell>
                <mxCell id="QeVsfK4hTUTbqEL9YIG4-64" value="" style="endArrow=none;html=1;rounded=0;exitX=0.5;exitY=0;exitDx=0;exitDy=0;fillColor=#d5e8d4;strokeColor=#82b366;" parent="1" source="QeVsfK4hTUTbqEL9YIG4-65" edge="1">
                    <mxGeometry relative="1" as="geometry">
                        <mxPoint x="-60" y="700" as="sourcePoint"/>
                        <mxPoint x="60" y="650" as="targetPoint"/>
                        <Array as="points">
                            <mxPoint x="10" y="700"/>
                            <mxPoint x="10" y="690"/>
                            <mxPoint x="60" y="690"/>
                        </Array>
                    </mxGeometry>
                </mxCell>
                <mxCell id="QeVsfK4hTUTbqEL9YIG4-78" value="1" style="edgeLabel;html=1;align=center;verticalAlign=middle;resizable=0;points=[];" parent="QeVsfK4hTUTbqEL9YIG4-64" vertex="1" connectable="0">
                    <mxGeometry x="-0.7456" y="-1" relative="1" as="geometry">
                        <mxPoint as="offset"/>
                    </mxGeometry>
                </mxCell>
                <mxCell id="QeVsfK4hTUTbqEL9YIG4-65" value="provides" style="shape=rhombus;perimeter=rhombusPerimeter;whiteSpace=wrap;html=1;align=center;fillColor=#6d8764;strokeColor=#3A5431;" parent="1" vertex="1">
                    <mxGeometry x="-50" y="780" width="120" height="60" as="geometry"/>
                </mxCell>
                <mxCell id="QeVsfK4hTUTbqEL9YIG4-75" value="" style="endArrow=none;html=1;rounded=0;entryX=0.5;entryY=1;entryDx=0;entryDy=0;exitX=0.5;exitY=0;exitDx=0;exitDy=0;fillColor=#d5e8d4;strokeColor=#82b366;" parent="1" source="QeVsfK4hTUTbqEL9YIG4-77" target="QeVsfK4hTUTbqEL9YIG4-65" edge="1">
                    <mxGeometry relative="1" as="geometry">
                        <mxPoint x="-390" y="700" as="sourcePoint"/>
                        <mxPoint x="-230" y="700" as="targetPoint"/>
                    </mxGeometry>
                </mxCell>
                <mxCell id="QeVsfK4hTUTbqEL9YIG4-79" value="N" style="edgeLabel;html=1;align=center;verticalAlign=middle;resizable=0;points=[];" parent="QeVsfK4hTUTbqEL9YIG4-75" vertex="1" connectable="0">
                    <mxGeometry x="0.685" relative="1" as="geometry">
                        <mxPoint as="offset"/>
                    </mxGeometry>
                </mxCell>
                <mxCell id="QeVsfK4hTUTbqEL9YIG4-77" value="Content" style="whiteSpace=wrap;html=1;align=center;fillColor=#647687;strokeColor=#314354;fontColor=#ffffff;" parent="1" vertex="1">
                    <mxGeometry x="-40" y="950" width="100" height="50" as="geometry"/>
                </mxCell>
                <mxCell id="QeVsfK4hTUTbqEL9YIG4-80" value="" style="endArrow=none;html=1;rounded=0;exitX=0.75;exitY=1;exitDx=0;exitDy=0;entryX=0.5;entryY=0;entryDx=0;entryDy=0;fillColor=#d5e8d4;strokeColor=#82b366;" parent="1" target="QeVsfK4hTUTbqEL9YIG4-81" edge="1">
                    <mxGeometry relative="1" as="geometry">
                        <mxPoint x="140" y="647.5" as="sourcePoint"/>
                        <mxPoint x="200" y="760" as="targetPoint"/>
                        <Array as="points">
                            <mxPoint x="140" y="690"/>
                            <mxPoint x="200" y="690"/>
                        </Array>
                    </mxGeometry>
                </mxCell>
                <mxCell id="QeVsfK4hTUTbqEL9YIG4-97" value="1" style="edgeLabel;html=1;align=center;verticalAlign=middle;resizable=0;points=[];" parent="QeVsfK4hTUTbqEL9YIG4-80" vertex="1" connectable="0">
                    <mxGeometry x="0.8358" y="2" relative="1" as="geometry">
                        <mxPoint as="offset"/>
                    </mxGeometry>
                </mxCell>
                <mxCell id="QeVsfK4hTUTbqEL9YIG4-81" value="consists of" style="shape=rhombus;perimeter=rhombusPerimeter;whiteSpace=wrap;html=1;align=center;fillColor=#6d8764;strokeColor=#3A5431;" parent="1" vertex="1">
                    <mxGeometry x="140" y="780" width="120" height="60" as="geometry"/>
                </mxCell>
                <mxCell id="QeVsfK4hTUTbqEL9YIG4-82" value="" style="endArrow=none;html=1;rounded=0;exitX=0.5;exitY=1;exitDx=0;exitDy=0;fillColor=#d5e8d4;strokeColor=#82b366;" parent="1" source="QeVsfK4hTUTbqEL9YIG4-81" target="QeVsfK4hTUTbqEL9YIG4-83" edge="1">
                    <mxGeometry relative="1" as="geometry">
                        <mxPoint x="170" y="910" as="sourcePoint"/>
                        <mxPoint x="220" y="920" as="targetPoint"/>
                    </mxGeometry>
                </mxCell>
                <mxCell id="QeVsfK4hTUTbqEL9YIG4-98" value="1" style="edgeLabel;html=1;align=center;verticalAlign=middle;resizable=0;points=[];" parent="QeVsfK4hTUTbqEL9YIG4-82" vertex="1" connectable="0">
                    <mxGeometry x="-0.56" y="2" relative="1" as="geometry">
                        <mxPoint as="offset"/>
                    </mxGeometry>
                </mxCell>
                <mxCell id="QeVsfK4hTUTbqEL9YIG4-83" value="Schedule" style="whiteSpace=wrap;html=1;align=center;fillColor=#647687;strokeColor=#314354;fontColor=#ffffff;" parent="1" vertex="1">
                    <mxGeometry x="145" y="950" width="110" height="50" as="geometry"/>
                </mxCell>
                <mxCell id="QeVsfK4hTUTbqEL9YIG4-86" value="Certification" style="whiteSpace=wrap;html=1;align=center;fillColor=#647687;strokeColor=#314354;fontColor=#ffffff;" parent="1" vertex="1">
                    <mxGeometry x="710" y="67.5" width="80" height="40" as="geometry"/>
                </mxCell>
                <mxCell id="QeVsfK4hTUTbqEL9YIG4-93" value="" style="endArrow=none;html=1;rounded=0;entryX=0.5;entryY=1;entryDx=0;entryDy=0;exitX=0.895;exitY=0.006;exitDx=0;exitDy=0;exitPerimeter=0;fillColor=#d5e8d4;strokeColor=#82b366;" parent="1" source="QeVsfK4hTUTbqEL9YIG4-21" target="QeVsfK4hTUTbqEL9YIG4-24" edge="1">
                    <mxGeometry relative="1" as="geometry">
                        <mxPoint x="180" y="590" as="sourcePoint"/>
                        <mxPoint x="340" y="420" as="targetPoint"/>
                        <Array as="points">
                            <mxPoint x="177" y="520"/>
                            <mxPoint x="400" y="520"/>
                        </Array>
                    </mxGeometry>
                </mxCell>
                <mxCell id="QeVsfK4hTUTbqEL9YIG4-94" value="N" style="edgeLabel;html=1;align=center;verticalAlign=middle;resizable=0;points=[];" parent="QeVsfK4hTUTbqEL9YIG4-93" vertex="1" connectable="0">
                    <mxGeometry x="0.8769" relative="1" as="geometry">
                        <mxPoint as="offset"/>
                    </mxGeometry>
                </mxCell>
                <mxCell id="QeVsfK4hTUTbqEL9YIG4-130" value="last_name" style="ellipse;whiteSpace=wrap;html=1;align=center;fillColor=#76608a;strokeColor=#432D57;fontColor=#ffffff;" parent="1" vertex="1">
                    <mxGeometry x="20" y="-60" width="80" height="30" as="geometry"/>
                </mxCell>
                <mxCell id="QeVsfK4hTUTbqEL9YIG4-133" value="email" style="ellipse;whiteSpace=wrap;html=1;align=center;fillColor=#76608a;strokeColor=#432D57;fontColor=#ffffff;" parent="1" vertex="1">
                    <mxGeometry x="120" y="-52.5" width="75" height="30" as="geometry"/>
                </mxCell>
                <mxCell id="QeVsfK4hTUTbqEL9YIG4-134" value="" style="endArrow=none;html=1;rounded=0;fillColor=#e1d5e7;strokeColor=#9673a6;entryX=0.5;entryY=0;entryDx=0;entryDy=0;" parent="1" source="QeVsfK4hTUTbqEL9YIG4-133" target="QeVsfK4hTUTbqEL9YIG4-1" edge="1">
                    <mxGeometry relative="1" as="geometry">
                        <mxPoint x="100" y="270" as="sourcePoint"/>
                        <mxPoint x="120" y="30" as="targetPoint"/>
                    </mxGeometry>
                </mxCell>
                <mxCell id="QeVsfK4hTUTbqEL9YIG4-135" value="" style="endArrow=none;html=1;rounded=0;exitX=0;exitY=0;exitDx=0;exitDy=0;fillColor=#e1d5e7;strokeColor=#9673a6;" parent="1" source="QeVsfK4hTUTbqEL9YIG4-1" target="QeVsfK4hTUTbqEL9YIG4-136" edge="1">
                    <mxGeometry relative="1" as="geometry">
                        <mxPoint x="160" y="160" as="sourcePoint"/>
                        <mxPoint x="320" y="160" as="targetPoint"/>
                    </mxGeometry>
                </mxCell>
                <mxCell id="QeVsfK4hTUTbqEL9YIG4-136" value="name" style="ellipse;whiteSpace=wrap;html=1;align=center;fillColor=#76608a;strokeColor=#432D57;fontColor=#ffffff;" parent="1" vertex="1">
                    <mxGeometry x="-48.75" y="-30" width="80" height="30" as="geometry"/>
                </mxCell>
                <mxCell id="QeVsfK4hTUTbqEL9YIG4-137" value="" style="endArrow=none;html=1;rounded=0;exitX=0.5;exitY=1;exitDx=0;exitDy=0;entryX=0.25;entryY=0;entryDx=0;entryDy=0;fillColor=#e1d5e7;strokeColor=#9673a6;" parent="1" source="QeVsfK4hTUTbqEL9YIG4-130" target="QeVsfK4hTUTbqEL9YIG4-1" edge="1">
                    <mxGeometry relative="1" as="geometry">
                        <mxPoint x="160" y="160" as="sourcePoint"/>
                        <mxPoint x="320" y="160" as="targetPoint"/>
                    </mxGeometry>
                </mxCell>
                <mxCell id="QeVsfK4hTUTbqEL9YIG4-151" value="&lt;span style=&quot;border-bottom: 1px dotted&quot;&gt;course_id&lt;/span&gt;" style="ellipse;whiteSpace=wrap;html=1;align=center;fillColor=#76608a;strokeColor=#432D57;" parent="1" vertex="1">
                    <mxGeometry x="720" y="-22.5" width="80" height="40" as="geometry"/>
                </mxCell>
                <mxCell id="QeVsfK4hTUTbqEL9YIG4-152" value="certificate_id" style="ellipse;whiteSpace=wrap;html=1;align=center;fontStyle=4;fillColor=#76608a;strokeColor=#432D57;fontColor=#ffffff;" parent="1" vertex="1">
                    <mxGeometry x="630" y="-10" width="70" height="40" as="geometry"/>
                </mxCell>
                <mxCell id="QeVsfK4hTUTbqEL9YIG4-158" value="&lt;span style=&quot;border-bottom: 1px dotted&quot;&gt;std_id&lt;/span&gt;" style="ellipse;whiteSpace=wrap;html=1;align=center;fillColor=#76608a;strokeColor=#432D57;" parent="1" vertex="1">
                    <mxGeometry x="820" y="-10" width="80" height="40" as="geometry"/>
                </mxCell>
                <mxCell id="QeVsfK4hTUTbqEL9YIG4-159" value="" style="endArrow=none;html=1;rounded=0;exitX=0.5;exitY=0;exitDx=0;exitDy=0;entryX=0.5;entryY=1;entryDx=0;entryDy=0;fillColor=#e1d5e7;strokeColor=#9673a6;" parent="1" source="QeVsfK4hTUTbqEL9YIG4-170" target="QeVsfK4hTUTbqEL9YIG4-21" edge="1">
                    <mxGeometry relative="1" as="geometry">
                        <mxPoint x="-20" y="655" as="sourcePoint"/>
                        <mxPoint x="140" y="655" as="targetPoint"/>
                    </mxGeometry>
                </mxCell>
                <mxCell id="QeVsfK4hTUTbqEL9YIG4-160" value="" style="endArrow=none;html=1;rounded=0;exitX=0.744;exitY=0.975;exitDx=0;exitDy=0;exitPerimeter=0;entryX=1;entryY=0;entryDx=0;entryDy=0;fillColor=#e1d5e7;strokeColor=#9673a6;" parent="1" source="QeVsfK4hTUTbqEL9YIG4-167" target="QeVsfK4hTUTbqEL9YIG4-21" edge="1">
                    <mxGeometry relative="1" as="geometry">
                        <mxPoint x="190" y="560" as="sourcePoint"/>
                        <mxPoint x="350" y="560" as="targetPoint"/>
                    </mxGeometry>
                </mxCell>
                <mxCell id="QeVsfK4hTUTbqEL9YIG4-161" value="" style="endArrow=none;html=1;rounded=0;entryX=0.392;entryY=1.015;entryDx=0;entryDy=0;entryPerimeter=0;exitX=0.5;exitY=0;exitDx=0;exitDy=0;fillColor=#e1d5e7;strokeColor=#9673a6;" parent="1" source="QeVsfK4hTUTbqEL9YIG4-86" target="QeVsfK4hTUTbqEL9YIG4-151" edge="1">
                    <mxGeometry relative="1" as="geometry">
                        <mxPoint x="580" y="400" as="sourcePoint"/>
                        <mxPoint x="620" y="349" as="targetPoint"/>
                    </mxGeometry>
                </mxCell>
                <mxCell id="QeVsfK4hTUTbqEL9YIG4-162" value="" style="endArrow=none;html=1;rounded=0;entryX=0.25;entryY=0;entryDx=0;entryDy=0;fillColor=#e1d5e7;strokeColor=#9673a6;" parent="1" target="QeVsfK4hTUTbqEL9YIG4-86" edge="1">
                    <mxGeometry relative="1" as="geometry">
                        <mxPoint x="670" y="30" as="sourcePoint"/>
                        <mxPoint x="640" y="390" as="targetPoint"/>
                    </mxGeometry>
                </mxCell>
                <mxCell id="QeVsfK4hTUTbqEL9YIG4-163" value="" style="endArrow=none;html=1;rounded=0;entryX=0.285;entryY=0.95;entryDx=0;entryDy=0;entryPerimeter=0;exitX=0.75;exitY=0;exitDx=0;exitDy=0;fillColor=#e1d5e7;strokeColor=#9673a6;" parent="1" source="QeVsfK4hTUTbqEL9YIG4-86" target="QeVsfK4hTUTbqEL9YIG4-158" edge="1">
                    <mxGeometry relative="1" as="geometry">
                        <mxPoint x="640" y="400" as="sourcePoint"/>
                        <mxPoint x="690" y="370" as="targetPoint"/>
                    </mxGeometry>
                </mxCell>
                <mxCell id="QeVsfK4hTUTbqEL9YIG4-165" value="schedule_id" style="ellipse;whiteSpace=wrap;html=1;align=center;fontStyle=4;fillColor=#76608a;strokeColor=#432D57;fontColor=#ffffff;" parent="1" vertex="1">
                    <mxGeometry x="310" y="930" width="90" height="40" as="geometry"/>
                </mxCell>
                <mxCell id="QeVsfK4hTUTbqEL9YIG4-166" value="sub_id" style="ellipse;whiteSpace=wrap;html=1;align=center;fontStyle=4;fillColor=#76608a;strokeColor=#432D57;" parent="1" vertex="1">
                    <mxGeometry x="850" y="250" width="80" height="35" as="geometry"/>
                </mxCell>
                <mxCell id="QeVsfK4hTUTbqEL9YIG4-167" value="course_id" style="ellipse;whiteSpace=wrap;html=1;align=center;fontStyle=4;fillColor=#76608a;strokeColor=#432D57;fontColor=#ffffff;" parent="1" vertex="1">
                    <mxGeometry x="211" y="550" width="85" height="30" as="geometry"/>
                </mxCell>
                <mxCell id="QeVsfK4hTUTbqEL9YIG4-168" value="assig_id" style="ellipse;whiteSpace=wrap;html=1;align=center;fontStyle=4;fillColor=#76608a;strokeColor=#432D57;" parent="1" vertex="1">
                    <mxGeometry x="730" y="700" width="100" height="40" as="geometry"/>
                </mxCell>
                <mxCell id="QeVsfK4hTUTbqEL9YIG4-170" value="description" style="ellipse;whiteSpace=wrap;html=1;align=center;fillColor=#76608a;strokeColor=#432D57;fontColor=#ffffff;" parent="1" vertex="1">
                    <mxGeometry x="62.5" y="700" width="80" height="40" as="geometry"/>
                </mxCell>
                <mxCell id="QeVsfK4hTUTbqEL9YIG4-172" value="&lt;span style=&quot;border-bottom: 1px dotted&quot;&gt;course_id&lt;/span&gt;" style="ellipse;whiteSpace=wrap;html=1;align=center;fillColor=#76608a;strokeColor=#432D57;" parent="1" vertex="1">
                    <mxGeometry x="610" y="700" width="100" height="40" as="geometry"/>
                </mxCell>
                <mxCell id="QeVsfK4hTUTbqEL9YIG4-173" value="&lt;span style=&quot;border-bottom: 1px dotted&quot;&gt;assig_id&lt;/span&gt;" style="ellipse;whiteSpace=wrap;html=1;align=center;fillColor=#76608a;strokeColor=#432D57;fontColor=#ffffff;" parent="1" vertex="1">
                    <mxGeometry x="580" y="330" width="80" height="40" as="geometry"/>
                </mxCell>
                <mxCell id="QeVsfK4hTUTbqEL9YIG4-174" value="&lt;span style=&quot;border-bottom: 1px dotted&quot;&gt;std_id&lt;/span&gt;" style="ellipse;whiteSpace=wrap;html=1;align=center;fillColor=#76608a;strokeColor=#432D57;" parent="1" vertex="1">
                    <mxGeometry x="850" y="340" width="80" height="40" as="geometry"/>
                </mxCell>
                <mxCell id="QeVsfK4hTUTbqEL9YIG4-176" value="&lt;span style=&quot;border-bottom: 1px dotted&quot;&gt;course_id&lt;/span&gt;" style="ellipse;whiteSpace=wrap;html=1;align=center;fillColor=#76608a;strokeColor=#432D57;fontColor=#ffffff;" parent="1" vertex="1">
                    <mxGeometry x="293" y="1000" width="90" height="40" as="geometry"/>
                </mxCell>
                <mxCell id="QeVsfK4hTUTbqEL9YIG4-177" value="content_description" style="ellipse;whiteSpace=wrap;html=1;align=center;fillColor=#76608a;strokeColor=#432D57;fontColor=#ffffff;" parent="1" vertex="1">
                    <mxGeometry x="-185" y="1020" width="110" height="40" as="geometry"/>
                </mxCell>
                <mxCell id="QeVsfK4hTUTbqEL9YIG4-178" value="start_date" style="ellipse;whiteSpace=wrap;html=1;align=center;fillColor=#76608a;strokeColor=#432D57;fontColor=#ffffff;" parent="1" vertex="1">
                    <mxGeometry x="120" y="1055" width="80" height="40" as="geometry"/>
                </mxCell>
                <mxCell id="QeVsfK4hTUTbqEL9YIG4-179" value="end_date" style="ellipse;whiteSpace=wrap;html=1;align=center;fillColor=#76608a;strokeColor=#432D57;fontColor=#ffffff;" parent="1" vertex="1">
                    <mxGeometry x="220" y="1050" width="80" height="45" as="geometry"/>
                </mxCell>
                <mxCell id="QeVsfK4hTUTbqEL9YIG4-181" value="" style="endArrow=none;html=1;rounded=0;exitX=0.5;exitY=1;exitDx=0;exitDy=0;entryX=0.5;entryY=0;entryDx=0;entryDy=0;fillColor=#e1d5e7;strokeColor=#9673a6;" parent="1" source="QeVsfK4hTUTbqEL9YIG4-46" target="QeVsfK4hTUTbqEL9YIG4-168" edge="1">
                    <mxGeometry relative="1" as="geometry">
                        <mxPoint x="720" y="790" as="sourcePoint"/>
                        <mxPoint x="880" y="790" as="targetPoint"/>
                    </mxGeometry>
                </mxCell>
                <mxCell id="QeVsfK4hTUTbqEL9YIG4-182" value="" style="endArrow=none;html=1;rounded=0;exitX=0.25;exitY=1;exitDx=0;exitDy=0;entryX=0.5;entryY=0;entryDx=0;entryDy=0;fillColor=#e1d5e7;strokeColor=#9673a6;" parent="1" source="QeVsfK4hTUTbqEL9YIG4-83" target="QeVsfK4hTUTbqEL9YIG4-178" edge="1">
                    <mxGeometry relative="1" as="geometry">
                        <mxPoint x="190" y="1010" as="sourcePoint"/>
                        <mxPoint x="350" y="1010" as="targetPoint"/>
                    </mxGeometry>
                </mxCell>
                <mxCell id="QeVsfK4hTUTbqEL9YIG4-183" value="" style="endArrow=none;html=1;rounded=0;exitX=0.75;exitY=1;exitDx=0;exitDy=0;entryX=0.5;entryY=0;entryDx=0;entryDy=0;fillColor=#e1d5e7;strokeColor=#9673a6;" parent="1" source="QeVsfK4hTUTbqEL9YIG4-83" target="QeVsfK4hTUTbqEL9YIG4-179" edge="1">
                    <mxGeometry relative="1" as="geometry">
                        <mxPoint x="360" y="900" as="sourcePoint"/>
                        <mxPoint x="520" y="900" as="targetPoint"/>
                    </mxGeometry>
                </mxCell>
                <mxCell id="QeVsfK4hTUTbqEL9YIG4-184" value="" style="endArrow=none;html=1;rounded=0;exitX=1;exitY=0.75;exitDx=0;exitDy=0;entryX=0;entryY=0;entryDx=0;entryDy=0;fillColor=#e1d5e7;strokeColor=#9673a6;" parent="1" source="QeVsfK4hTUTbqEL9YIG4-83" target="QeVsfK4hTUTbqEL9YIG4-176" edge="1">
                    <mxGeometry relative="1" as="geometry">
                        <mxPoint x="360" y="900" as="sourcePoint"/>
                        <mxPoint x="520" y="900" as="targetPoint"/>
                    </mxGeometry>
                </mxCell>
                <mxCell id="QeVsfK4hTUTbqEL9YIG4-185" value="" style="endArrow=none;html=1;rounded=0;exitX=1;exitY=0.25;exitDx=0;exitDy=0;entryX=0;entryY=0.5;entryDx=0;entryDy=0;fillColor=#e1d5e7;strokeColor=#9673a6;" parent="1" source="QeVsfK4hTUTbqEL9YIG4-83" target="QeVsfK4hTUTbqEL9YIG4-165" edge="1">
                    <mxGeometry relative="1" as="geometry">
                        <mxPoint x="360" y="900" as="sourcePoint"/>
                        <mxPoint x="520" y="900" as="targetPoint"/>
                    </mxGeometry>
                </mxCell>
                <mxCell id="QeVsfK4hTUTbqEL9YIG4-187" value="&lt;span style=&quot;border-bottom: 1px dotted&quot;&gt;course_id&lt;/span&gt;" style="ellipse;whiteSpace=wrap;html=1;align=center;fillColor=#76608a;strokeColor=#432D57;fontColor=#ffffff;" parent="1" vertex="1">
                    <mxGeometry x="-50" y="1040" width="100" height="40" as="geometry"/>
                </mxCell>
                <mxCell id="QeVsfK4hTUTbqEL9YIG4-188" value="" style="endArrow=none;html=1;rounded=0;entryX=0.5;entryY=1;entryDx=0;entryDy=0;exitX=0.5;exitY=0;exitDx=0;exitDy=0;fillColor=#e1d5e7;strokeColor=#9673a6;" parent="1" source="QeVsfK4hTUTbqEL9YIG4-187" target="QeVsfK4hTUTbqEL9YIG4-77" edge="1">
                    <mxGeometry relative="1" as="geometry">
                        <mxPoint y="1039" as="sourcePoint"/>
                        <mxPoint x="160" y="1039" as="targetPoint"/>
                    </mxGeometry>
                </mxCell>
                <mxCell id="QeVsfK4hTUTbqEL9YIG4-189" value="" style="endArrow=none;html=1;rounded=0;exitX=0.5;exitY=0;exitDx=0;exitDy=0;fillColor=#e1d5e7;strokeColor=#9673a6;" parent="1" source="QeVsfK4hTUTbqEL9YIG4-177" edge="1">
                    <mxGeometry relative="1" as="geometry">
                        <mxPoint x="-200" y="980" as="sourcePoint"/>
                        <mxPoint x="-40" y="980" as="targetPoint"/>
                    </mxGeometry>
                </mxCell>
                <mxCell id="QeVsfK4hTUTbqEL9YIG4-192" value="" style="endArrow=none;html=1;rounded=0;entryX=1;entryY=0.5;entryDx=0;entryDy=0;exitX=0;exitY=1;exitDx=0;exitDy=0;fillColor=#e1d5e7;strokeColor=#9673a6;" parent="1" source="QeVsfK4hTUTbqEL9YIG4-53" target="QeVsfK4hTUTbqEL9YIG4-173" edge="1">
                    <mxGeometry relative="1" as="geometry">
                        <mxPoint x="810" y="370" as="sourcePoint"/>
                        <mxPoint x="970" y="370" as="targetPoint"/>
                    </mxGeometry>
                </mxCell>
                <mxCell id="QeVsfK4hTUTbqEL9YIG4-193" value="" style="endArrow=none;html=1;rounded=0;exitX=1;exitY=1;exitDx=0;exitDy=0;entryX=0;entryY=0.5;entryDx=0;entryDy=0;fillColor=#e1d5e7;strokeColor=#9673a6;" parent="1" source="QeVsfK4hTUTbqEL9YIG4-53" target="QeVsfK4hTUTbqEL9YIG4-174" edge="1">
                    <mxGeometry relative="1" as="geometry">
                        <mxPoint x="830" y="329.5" as="sourcePoint"/>
                        <mxPoint x="990" y="329.5" as="targetPoint"/>
                        <Array as="points"/>
                    </mxGeometry>
                </mxCell>
                <mxCell id="QeVsfK4hTUTbqEL9YIG4-194" value="" style="endArrow=none;html=1;rounded=0;exitX=1;exitY=0;exitDx=0;exitDy=0;entryX=0;entryY=0.5;entryDx=0;entryDy=0;fillColor=#e1d5e7;strokeColor=#9673a6;" parent="1" source="QeVsfK4hTUTbqEL9YIG4-53" target="QeVsfK4hTUTbqEL9YIG4-166" edge="1">
                    <mxGeometry relative="1" as="geometry">
                        <mxPoint x="780" y="269.5" as="sourcePoint"/>
                        <mxPoint x="940" y="269.5" as="targetPoint"/>
                    </mxGeometry>
                </mxCell>
                <mxCell id="QeVsfK4hTUTbqEL9YIG4-196" value="" style="endArrow=none;html=1;rounded=0;entryX=0.25;entryY=1;entryDx=0;entryDy=0;exitX=1;exitY=0;exitDx=0;exitDy=0;fillColor=#e1d5e7;strokeColor=#9673a6;" parent="1" source="QeVsfK4hTUTbqEL9YIG4-172" target="QeVsfK4hTUTbqEL9YIG4-46" edge="1">
                    <mxGeometry relative="1" as="geometry">
                        <mxPoint x="680" y="680" as="sourcePoint"/>
                        <mxPoint x="840" y="680" as="targetPoint"/>
                    </mxGeometry>
                </mxCell>
                <mxCell id="sk798J-t8S1_1swlPKjx-3" value="" style="endArrow=none;html=1;rounded=0;fillColor=#e1d5e7;strokeColor=#9673a6;exitX=1;exitY=1;exitDx=0;exitDy=0;" parent="1" source="QeVsfK4hTUTbqEL9YIG4-1" edge="1" target="sk798J-t8S1_1swlPKjx-4">
                    <mxGeometry relative="1" as="geometry">
                        <mxPoint x="160" y="49.5" as="sourcePoint"/>
                        <mxPoint x="240" y="50" as="targetPoint"/>
                    </mxGeometry>
                </mxCell>
                <mxCell id="sk798J-t8S1_1swlPKjx-4" value="type" style="ellipse;whiteSpace=wrap;html=1;align=center;fillColor=#76608a;strokeColor=#432D57;fontColor=#ffffff;" parent="1" vertex="1">
                    <mxGeometry x="195" y="77.5" width="80" height="30" as="geometry"/>
                </mxCell>
                <mxCell id="sk798J-t8S1_1swlPKjx-7" value="" style="endArrow=none;html=1;rounded=0;exitX=1;exitY=0.5;exitDx=0;exitDy=0;fillColor=#e1d5e7;strokeColor=#9673a6;" parent="1" source="sk798J-t8S1_1swlPKjx-8" edge="1">
                    <mxGeometry relative="1" as="geometry">
                        <mxPoint x="20" y="50" as="sourcePoint"/>
                        <mxPoint x="60" y="70" as="targetPoint"/>
                    </mxGeometry>
                </mxCell>
                <mxCell id="sk798J-t8S1_1swlPKjx-8" value="user_id" style="ellipse;whiteSpace=wrap;html=1;align=center;fontStyle=4;fillColor=#76608a;strokeColor=#432D57;fontColor=#ffffff;" parent="1" vertex="1">
                    <mxGeometry x="-75" y="70" width="75" height="35" as="geometry"/>
                </mxCell>
                <mxCell id="sk798J-t8S1_1swlPKjx-26" value="" style="endArrow=none;html=1;rounded=0;entryX=0.5;entryY=0;entryDx=0;entryDy=0;exitX=0.5;exitY=1;exitDx=0;exitDy=0;fillColor=#d5e8d4;strokeColor=#82b366;" parent="1" source="QeVsfK4hTUTbqEL9YIG4-53" target="QeVsfK4hTUTbqEL9YIG4-50" edge="1">
                    <mxGeometry relative="1" as="geometry">
                        <mxPoint x="620" y="440" as="sourcePoint"/>
                        <mxPoint x="780" y="440" as="targetPoint"/>
                    </mxGeometry>
                </mxCell>
                <mxCell id="sk798J-t8S1_1swlPKjx-27" value="N" style="resizable=0;html=1;whiteSpace=wrap;align=right;verticalAlign=bottom;" parent="sk798J-t8S1_1swlPKjx-26" connectable="0" vertex="1">
                    <mxGeometry x="1" relative="1" as="geometry"/>
                </mxCell>
                <mxCell id="sk798J-t8S1_1swlPKjx-28" value="submission_date" style="ellipse;whiteSpace=wrap;html=1;align=center;fillColor=#76608a;strokeColor=#432D57;fontColor=#ffffff;" parent="1" vertex="1">
                    <mxGeometry x="570" y="260" width="110" height="40" as="geometry"/>
                </mxCell>
                <mxCell id="sk798J-t8S1_1swlPKjx-29" value="" style="endArrow=none;html=1;rounded=0;entryX=1;entryY=1;entryDx=0;entryDy=0;exitX=0;exitY=0;exitDx=0;exitDy=0;fillColor=#e1d5e7;strokeColor=#9673a6;" parent="1" source="QeVsfK4hTUTbqEL9YIG4-53" target="sk798J-t8S1_1swlPKjx-28" edge="1">
                    <mxGeometry relative="1" as="geometry">
                        <mxPoint x="1040" y="375" as="sourcePoint"/>
                        <mxPoint x="1070" y="390" as="targetPoint"/>
                    </mxGeometry>
                </mxCell>
                <mxCell id="sk798J-t8S1_1swlPKjx-35" value="" style="endArrow=none;html=1;rounded=0;exitX=1;exitY=1;exitDx=0;exitDy=0;entryX=0.5;entryY=0;entryDx=0;entryDy=0;fillColor=#e1d5e7;strokeColor=#9673a6;" parent="1" source="QeVsfK4hTUTbqEL9YIG4-46" target="sk798J-t8S1_1swlPKjx-36" edge="1">
                    <mxGeometry relative="1" as="geometry">
                        <mxPoint x="1040" y="640" as="sourcePoint"/>
                        <mxPoint x="1010" y="680" as="targetPoint"/>
                    </mxGeometry>
                </mxCell>
                <mxCell id="sk798J-t8S1_1swlPKjx-36" value="upload_date" style="ellipse;whiteSpace=wrap;html=1;align=center;fillColor=#76608a;strokeColor=#432D57;" parent="1" vertex="1">
                    <mxGeometry x="870" y="690" width="100" height="40" as="geometry"/>
                </mxCell>
                <mxCell id="sk798J-t8S1_1swlPKjx-37" value="" style="endArrow=none;html=1;rounded=0;exitX=1;exitY=0.5;exitDx=0;exitDy=0;entryX=0;entryY=0.5;entryDx=0;entryDy=0;fillColor=#e1d5e7;strokeColor=#9673a6;" parent="1" source="QeVsfK4hTUTbqEL9YIG4-46" target="sk798J-t8S1_1swlPKjx-38" edge="1">
                    <mxGeometry relative="1" as="geometry">
                        <mxPoint x="970" y="630" as="sourcePoint"/>
                        <mxPoint x="1050" y="630" as="targetPoint"/>
                    </mxGeometry>
                </mxCell>
                <mxCell id="sk798J-t8S1_1swlPKjx-38" value="description" style="ellipse;whiteSpace=wrap;html=1;align=center;fillColor=#76608a;strokeColor=#432D57;" parent="1" vertex="1">
                    <mxGeometry x="910" y="602.5" width="100" height="40" as="geometry"/>
                </mxCell>
                <mxCell id="sk798J-t8S1_1swlPKjx-40" value="" style="endArrow=none;html=1;rounded=0;entryX=0.5;entryY=1;entryDx=0;entryDy=0;fillColor=#e1d5e7;strokeColor=#9673a6;" parent="1" target="sk798J-t8S1_1swlPKjx-50" edge="1">
                    <mxGeometry relative="1" as="geometry">
                        <mxPoint x="240" y="948.95" as="sourcePoint"/>
                        <mxPoint x="260" y="890" as="targetPoint"/>
                    </mxGeometry>
                </mxCell>
                <mxCell id="sk798J-t8S1_1swlPKjx-42" value="" style="endArrow=none;html=1;rounded=0;exitX=1;exitY=0;exitDx=0;exitDy=0;fillColor=#e1d5e7;strokeColor=#9673a6;" parent="1" source="QeVsfK4hTUTbqEL9YIG4-46" target="sk798J-t8S1_1swlPKjx-43" edge="1">
                    <mxGeometry relative="1" as="geometry">
                        <mxPoint x="940" y="560" as="sourcePoint"/>
                        <mxPoint x="990" y="560" as="targetPoint"/>
                        <Array as="points"/>
                    </mxGeometry>
                </mxCell>
                <mxCell id="sk798J-t8S1_1swlPKjx-43" value="deadline" style="ellipse;whiteSpace=wrap;html=1;align=center;fillColor=#76608a;strokeColor=#432D57;" parent="1" vertex="1">
                    <mxGeometry x="840" y="540" width="100" height="40" as="geometry"/>
                </mxCell>
                <mxCell id="sk798J-t8S1_1swlPKjx-44" value="" style="endArrow=none;html=1;rounded=0;exitX=0.5;exitY=1;exitDx=0;exitDy=0;entryX=0.5;entryY=0;entryDx=0;entryDy=0;fillColor=#d5e8d4;strokeColor=#82b366;" parent="1" edge="1">
                    <mxGeometry relative="1" as="geometry">
                        <mxPoint x="110" y="290" as="sourcePoint"/>
                        <mxPoint x="110" y="395" as="targetPoint"/>
                    </mxGeometry>
                </mxCell>
                <mxCell id="sk798J-t8S1_1swlPKjx-45" value="M" style="edgeLabel;html=1;align=center;verticalAlign=middle;resizable=0;points=[];" parent="sk798J-t8S1_1swlPKjx-44" vertex="1" connectable="0">
                    <mxGeometry x="0.652" y="4" relative="1" as="geometry">
                        <mxPoint as="offset"/>
                    </mxGeometry>
                </mxCell>
                <mxCell id="sk798J-t8S1_1swlPKjx-48" value="" style="endArrow=none;html=1;rounded=0;exitX=0.5;exitY=1;exitDx=0;exitDy=0;entryX=0.5;entryY=0;entryDx=0;entryDy=0;fillColor=#d5e8d4;strokeColor=#82b366;" parent="1" target="QeVsfK4hTUTbqEL9YIG4-24" edge="1">
                    <mxGeometry relative="1" as="geometry">
                        <mxPoint x="398.95" y="220" as="sourcePoint"/>
                        <mxPoint x="398.95" y="325" as="targetPoint"/>
                    </mxGeometry>
                </mxCell>
                <mxCell id="sk798J-t8S1_1swlPKjx-49" value="M" style="edgeLabel;html=1;align=center;verticalAlign=middle;resizable=0;points=[];" parent="sk798J-t8S1_1swlPKjx-48" vertex="1" connectable="0">
                    <mxGeometry x="0.652" y="4" relative="1" as="geometry">
                        <mxPoint as="offset"/>
                    </mxGeometry>
                </mxCell>
                <mxCell id="sk798J-t8S1_1swlPKjx-50" value="session_duration" style="ellipse;whiteSpace=wrap;html=1;align=center;fillColor=#76608a;strokeColor=#432D57;fontColor=#ffffff;" parent="1" vertex="1">
                    <mxGeometry x="235" y="880" width="105" height="35" as="geometry"/>
                </mxCell>
                <mxCell id="sk798J-t8S1_1swlPKjx-53" value="nr_of_sessions" style="ellipse;whiteSpace=wrap;html=1;align=center;fillColor=#76608a;strokeColor=#432D57;" parent="1" vertex="1">
                    <mxGeometry x="400" y="970" width="110" height="40" as="geometry"/>
                </mxCell>
                <mxCell id="sk798J-t8S1_1swlPKjx-54" value="" style="endArrow=none;html=1;rounded=0;entryX=0;entryY=0.5;entryDx=0;entryDy=0;exitX=1;exitY=0.5;exitDx=0;exitDy=0;fillColor=#e1d5e7;strokeColor=#9673a6;" parent="1" source="QeVsfK4hTUTbqEL9YIG4-83" target="sk798J-t8S1_1swlPKjx-53" edge="1">
                    <mxGeometry relative="1" as="geometry">
                        <mxPoint x="260" y="974.47" as="sourcePoint"/>
                        <mxPoint x="420" y="974.47" as="targetPoint"/>
                    </mxGeometry>
                </mxCell>
                <mxCell id="sk798J-t8S1_1swlPKjx-59" value="" style="endArrow=none;html=1;rounded=0;exitX=0;exitY=0.25;exitDx=0;exitDy=0;entryX=0.5;entryY=0;entryDx=0;entryDy=0;fillColor=#e1d5e7;strokeColor=#9673a6;" parent="1" source="QeVsfK4hTUTbqEL9YIG4-77" target="sk798J-t8S1_1swlPKjx-60" edge="1">
                    <mxGeometry relative="1" as="geometry">
                        <mxPoint x="-50" y="970" as="sourcePoint"/>
                        <mxPoint x="-195" y="897.5" as="targetPoint"/>
                    </mxGeometry>
                </mxCell>
                <mxCell id="sk798J-t8S1_1swlPKjx-60" value="upload_date" style="ellipse;whiteSpace=wrap;html=1;align=center;fillColor=#76608a;strokeColor=#432D57;fontColor=#ffffff;" parent="1" vertex="1">
                    <mxGeometry x="-200" y="950" width="100" height="40" as="geometry"/>
                </mxCell>
                <mxCell id="sk798J-t8S1_1swlPKjx-61" value="" style="endArrow=none;html=1;rounded=0;entryX=0.5;entryY=0;entryDx=0;entryDy=0;fillColor=#e1d5e7;strokeColor=#9673a6;" parent="1" source="QeVsfK4hTUTbqEL9YIG4-77" target="sk798J-t8S1_1swlPKjx-62" edge="1">
                    <mxGeometry relative="1" as="geometry">
                        <mxPoint x="-28.4" y="950" as="sourcePoint"/>
                        <mxPoint x="-170" y="871.45" as="targetPoint"/>
                    </mxGeometry>
                </mxCell>
                <mxCell id="sk798J-t8S1_1swlPKjx-62" value="update_date" style="ellipse;whiteSpace=wrap;html=1;align=center;fillColor=#76608a;strokeColor=#432D57;fontColor=#ffffff;" parent="1" vertex="1">
                    <mxGeometry x="-150" y="871.45" width="100" height="40" as="geometry"/>
                </mxCell>
                <mxCell id="sk798J-t8S1_1swlPKjx-63" value="content_id" style="ellipse;whiteSpace=wrap;html=1;align=center;fontStyle=4;fillColor=#76608a;strokeColor=#432D57;fontColor=#ffffff;" parent="1" vertex="1">
                    <mxGeometry x="40" y="871.45" width="100" height="40" as="geometry"/>
                </mxCell>
                <mxCell id="sk798J-t8S1_1swlPKjx-64" value="" style="endArrow=none;html=1;rounded=0;entryX=0.75;entryY=0;entryDx=0;entryDy=0;exitX=0.5;exitY=1;exitDx=0;exitDy=0;fillColor=#e1d5e7;strokeColor=#9673a6;" parent="1" source="sk798J-t8S1_1swlPKjx-63" target="QeVsfK4hTUTbqEL9YIG4-77" edge="1">
                    <mxGeometry relative="1" as="geometry">
                        <mxPoint x="63" y="915" as="sourcePoint"/>
                        <mxPoint x="-20" y="836" as="targetPoint"/>
                    </mxGeometry>
                </mxCell>
                <mxCell id="sk798J-t8S1_1swlPKjx-66" value="" style="endArrow=none;html=1;rounded=0;exitX=1;exitY=0.5;exitDx=0;exitDy=0;entryX=0;entryY=0.5;entryDx=0;entryDy=0;fillColor=#e1d5e7;strokeColor=#9673a6;" parent="1" source="QeVsfK4hTUTbqEL9YIG4-86" target="sk798J-t8S1_1swlPKjx-67" edge="1">
                    <mxGeometry relative="1" as="geometry">
                        <mxPoint x="665" y="430.5" as="sourcePoint"/>
                        <mxPoint x="770" y="432.5" as="targetPoint"/>
                    </mxGeometry>
                </mxCell>
                <mxCell id="sk798J-t8S1_1swlPKjx-67" value="description" style="ellipse;whiteSpace=wrap;html=1;align=center;fillColor=#76608a;strokeColor=#432D57;" parent="1" vertex="1">
                    <mxGeometry x="830" y="67.5" width="80" height="40" as="geometry"/>
                </mxCell>
                <mxCell id="sk798J-t8S1_1swlPKjx-69" value="" style="endArrow=none;html=1;rounded=0;entryX=0.5;entryY=0;entryDx=0;entryDy=0;fillColor=#e1d5e7;strokeColor=#9673a6;" parent="1" target="sk798J-t8S1_1swlPKjx-70" edge="1">
                    <mxGeometry relative="1" as="geometry">
                        <mxPoint x="710" y="88" as="sourcePoint"/>
                        <mxPoint x="625" y="502.5" as="targetPoint"/>
                    </mxGeometry>
                </mxCell>
                <mxCell id="sk798J-t8S1_1swlPKjx-70" value="ranking" style="ellipse;whiteSpace=wrap;html=1;align=center;fillColor=#76608a;strokeColor=#432D57;fontColor=#ffffff;" parent="1" vertex="1">
                    <mxGeometry x="585" y="47.5" width="70" height="32.5" as="geometry"/>
                </mxCell>
                <mxCell id="sk798J-t8S1_1swlPKjx-343" value="" style="endArrow=none;html=1;rounded=0;exitX=0.5;exitY=1;exitDx=0;exitDy=0;fillColor=#e1d5e7;strokeColor=#9673a6;entryX=1;entryY=1;entryDx=0;entryDy=0;" parent="1" source="sk798J-t8S1_1swlPKjx-346" target="QeVsfK4hTUTbqEL9YIG4-21" edge="1">
                    <mxGeometry relative="1" as="geometry">
                        <mxPoint x="269.00000000000045" y="580.8400000000001" as="sourcePoint"/>
                        <mxPoint x="68" y="598" as="targetPoint"/>
                    </mxGeometry>
                </mxCell>
                <mxCell id="sk798J-t8S1_1swlPKjx-346" value="title" style="ellipse;whiteSpace=wrap;html=1;align=center;fillColor=#76608a;strokeColor=#432D57;fontColor=#ffffff;" parent="1" vertex="1">
                    <mxGeometry x="214.25" y="670" width="78.75" height="30" as="geometry"/>
                </mxCell>
                <mxCell id="sk798J-t8S1_1swlPKjx-349" value="" style="endArrow=none;html=1;rounded=0;entryX=0;entryY=0.5;entryDx=0;entryDy=0;fillColor=#e1d5e7;strokeColor=#9673a6;exitX=0.98;exitY=0.702;exitDx=0;exitDy=0;exitPerimeter=0;" parent="1" source="sk798J-t8S1_1swlPKjx-350" target="QeVsfK4hTUTbqEL9YIG4-1" edge="1">
                    <mxGeometry relative="1" as="geometry">
                        <mxPoint x="-30" y="-10" as="sourcePoint"/>
                        <mxPoint x="30" as="targetPoint"/>
                    </mxGeometry>
                </mxCell>
                <mxCell id="sk798J-t8S1_1swlPKjx-350" value="last_logged" style="ellipse;whiteSpace=wrap;html=1;align=center;fillColor=#76608a;strokeColor=#432D57;fontColor=#ffffff;" parent="1" vertex="1">
                    <mxGeometry x="-80" y="20" width="80" height="35" as="geometry"/>
                </mxCell>
                <mxCell id="sk798J-t8S1_1swlPKjx-353" value="specialization" style="ellipse;shape=doubleEllipse;margin=3;whiteSpace=wrap;html=1;align=center;fillColor=#76608a;strokeColor=#432D57;fontColor=#ffffff;" parent="1" vertex="1">
                    <mxGeometry x="-56.25" y="230" width="87.5" height="35" as="geometry"/>
                </mxCell>
                <mxCell id="sk798J-t8S1_1swlPKjx-354" value="" style="endArrow=none;html=1;rounded=0;exitX=1;exitY=0.5;exitDx=0;exitDy=0;entryX=0;entryY=0.5;entryDx=0;entryDy=0;fillColor=#e1d5e7;strokeColor=#9673a6;" parent="1" source="sk798J-t8S1_1swlPKjx-353" target="QeVsfK4hTUTbqEL9YIG4-16" edge="1">
                    <mxGeometry relative="1" as="geometry">
                        <mxPoint x="150" y="240" as="sourcePoint"/>
                        <mxPoint x="310" y="240" as="targetPoint"/>
                    </mxGeometry>
                </mxCell>
                <mxCell id="8_d6funxsuRYMDbqIWSm-1" value="" style="endArrow=none;html=1;rounded=0;exitX=1;exitY=0.5;exitDx=0;exitDy=0;entryX=0;entryY=0.5;entryDx=0;entryDy=0;fillColor=#e1d5e7;strokeColor=#9673a6;" parent="1" source="QeVsfK4hTUTbqEL9YIG4-16" target="8_d6funxsuRYMDbqIWSm-4" edge="1">
                    <mxGeometry relative="1" as="geometry">
                        <mxPoint x="175.5" y="269.5" as="sourcePoint"/>
                        <mxPoint x="220" y="270" as="targetPoint"/>
                    </mxGeometry>
                </mxCell>
                <mxCell id="8_d6funxsuRYMDbqIWSm-2" value="" style="endArrow=none;html=1;rounded=0;exitX=0.5;exitY=0;exitDx=0;exitDy=0;fillColor=#e1d5e7;strokeColor=#9673a6;" parent="1" source="QeVsfK4hTUTbqEL9YIG4-17" target="8_d6funxsuRYMDbqIWSm-6" edge="1">
                    <mxGeometry relative="1" as="geometry">
                        <mxPoint x="370" y="140" as="sourcePoint"/>
                        <mxPoint x="530" y="140" as="targetPoint"/>
                    </mxGeometry>
                </mxCell>
                <mxCell id="8_d6funxsuRYMDbqIWSm-3" value="" style="endArrow=none;html=1;rounded=0;entryX=0.5;entryY=0;entryDx=0;entryDy=0;exitX=1;exitY=1;exitDx=0;exitDy=0;fillColor=#e1d5e7;strokeColor=#9673a6;" parent="1" source="8_d6funxsuRYMDbqIWSm-5" target="QeVsfK4hTUTbqEL9YIG4-15" edge="1">
                    <mxGeometry relative="1" as="geometry">
                        <mxPoint x="-290" y="170" as="sourcePoint"/>
                        <mxPoint x="-130" y="170" as="targetPoint"/>
                    </mxGeometry>
                </mxCell>
                <mxCell id="8_d6funxsuRYMDbqIWSm-4" value="inst_id" style="ellipse;whiteSpace=wrap;html=1;align=center;fillColor=#76608a;strokeColor=#432D57;fontColor=#ffffff;" parent="1" vertex="1">
                    <mxGeometry x="211" y="250" width="82" height="30" as="geometry"/>
                </mxCell>
                <mxCell id="8_d6funxsuRYMDbqIWSm-5" value="admin_id" style="ellipse;whiteSpace=wrap;html=1;align=center;fillColor=#76608a;strokeColor=#432D57;fontColor=#ffffff;" parent="1" vertex="1">
                    <mxGeometry x="-280" y="117.5" width="80" height="35" as="geometry"/>
                </mxCell>
                <mxCell id="8_d6funxsuRYMDbqIWSm-6" value="std_id" style="ellipse;whiteSpace=wrap;html=1;align=center;fillColor=#76608a;strokeColor=#432D57;fontColor=#ffffff;" parent="1" vertex="1">
                    <mxGeometry x="320" y="127.5" width="100" height="30" as="geometry"/>
                </mxCell>
                <mxCell id="8_d6funxsuRYMDbqIWSm-10" value="date_ofBirth" style="ellipse;whiteSpace=wrap;html=1;align=center;fillColor=#76608a;strokeColor=#432D57;fontColor=#ffffff;" vertex="1" parent="1">
                    <mxGeometry x="200" y="22.5" width="82" height="30" as="geometry"/>
                </mxCell>
                <mxCell id="8_d6funxsuRYMDbqIWSm-12" value="creation_date" style="ellipse;whiteSpace=wrap;html=1;align=center;fillColor=#76608a;strokeColor=#432D57;fontColor=#ffffff;" vertex="1" parent="1">
                    <mxGeometry x="187.5" y="-22.5" width="82.5" height="27.5" as="geometry"/>
                </mxCell>
                <mxCell id="8_d6funxsuRYMDbqIWSm-15" value="" style="endArrow=none;html=1;rounded=0;exitX=1;exitY=0.5;exitDx=0;exitDy=0;entryX=0;entryY=0.5;entryDx=0;entryDy=0;fillColor=#e1d5e7;strokeColor=#9673a6;" edge="1" parent="1" source="QeVsfK4hTUTbqEL9YIG4-1" target="8_d6funxsuRYMDbqIWSm-10">
                    <mxGeometry relative="1" as="geometry">
                        <mxPoint x="223" y="52.5" as="sourcePoint"/>
                        <mxPoint x="383" y="52.5" as="targetPoint"/>
                    </mxGeometry>
                </mxCell>
                <mxCell id="8_d6funxsuRYMDbqIWSm-16" value="" style="endArrow=none;html=1;rounded=0;exitX=1;exitY=0;exitDx=0;exitDy=0;entryX=0;entryY=1;entryDx=0;entryDy=0;fillColor=#e1d5e7;strokeColor=#9673a6;" edge="1" parent="1" source="QeVsfK4hTUTbqEL9YIG4-1" target="8_d6funxsuRYMDbqIWSm-12">
                    <mxGeometry relative="1" as="geometry">
                        <mxPoint x="170" y="21.5" as="sourcePoint"/>
                        <mxPoint x="330" y="21.5" as="targetPoint"/>
                    </mxGeometry>
                </mxCell>
                <mxCell id="rQZ_6SeaW6LinOLToxDa-2" value="" style="endArrow=none;html=1;rounded=0;exitX=1;exitY=0;exitDx=0;exitDy=0;entryX=0;entryY=0.5;entryDx=0;entryDy=0;fillColor=#d5e8d4;strokeColor=#82b366;" edge="1" parent="1" source="QeVsfK4hTUTbqEL9YIG4-17" target="rQZ_6SeaW6LinOLToxDa-3">
                    <mxGeometry relative="1" as="geometry">
                        <mxPoint x="425" y="87" as="sourcePoint"/>
                        <mxPoint x="503" y="127" as="targetPoint"/>
                        <Array as="points">
                            <mxPoint x="450" y="110"/>
                        </Array>
                    </mxGeometry>
                </mxCell>
                <mxCell id="rQZ_6SeaW6LinOLToxDa-8" value="1" style="edgeLabel;html=1;align=center;verticalAlign=middle;resizable=0;points=[];" connectable="0" vertex="1" parent="rQZ_6SeaW6LinOLToxDa-2">
                    <mxGeometry x="0.792" y="2" relative="1" as="geometry">
                        <mxPoint as="offset"/>
                    </mxGeometry>
                </mxCell>
                <mxCell id="rQZ_6SeaW6LinOLToxDa-3" value="earns" style="shape=rhombus;perimeter=rhombusPerimeter;whiteSpace=wrap;html=1;align=center;fillColor=#6d8764;strokeColor=#3A5431;" vertex="1" parent="1">
                    <mxGeometry x="530" y="80" width="80" height="60" as="geometry"/>
                </mxCell>
                <mxCell id="rQZ_6SeaW6LinOLToxDa-4" value="" style="endArrow=none;html=1;rounded=0;exitX=1;exitY=0.5;exitDx=0;exitDy=0;fillColor=#d5e8d4;strokeColor=#82b366;entryX=0.5;entryY=1;entryDx=0;entryDy=0;" edge="1" parent="1" source="rQZ_6SeaW6LinOLToxDa-3" target="QeVsfK4hTUTbqEL9YIG4-86">
                    <mxGeometry relative="1" as="geometry">
                        <mxPoint x="440" y="69" as="sourcePoint"/>
                        <mxPoint x="740" y="130" as="targetPoint"/>
                        <Array as="points">
                            <mxPoint x="660" y="130"/>
                        </Array>
                    </mxGeometry>
                </mxCell>
                <mxCell id="rQZ_6SeaW6LinOLToxDa-10" value="N" style="edgeLabel;html=1;align=center;verticalAlign=middle;resizable=0;points=[];" connectable="0" vertex="1" parent="rQZ_6SeaW6LinOLToxDa-4">
                    <mxGeometry x="-0.7513" y="1" relative="1" as="geometry">
                        <mxPoint y="-1" as="offset"/>
                    </mxGeometry>
                </mxCell>
                <mxCell id="rQZ_6SeaW6LinOLToxDa-11" value="" style="endArrow=none;html=1;rounded=0;entryX=0;entryY=0.5;entryDx=0;entryDy=0;exitX=1;exitY=0.5;exitDx=0;exitDy=0;fillColor=#d5e8d4;strokeColor=#82b366;" edge="1" parent="1" source="rQZ_6SeaW6LinOLToxDa-12" target="QeVsfK4hTUTbqEL9YIG4-21">
                    <mxGeometry relative="1" as="geometry">
                        <mxPoint x="-170" y="624" as="sourcePoint"/>
                        <mxPoint x="-10" y="619.5" as="targetPoint"/>
                        <Array as="points">
                            <mxPoint x="-100" y="580"/>
                            <mxPoint x="-100" y="624"/>
                        </Array>
                    </mxGeometry>
                </mxCell>
                <mxCell id="rQZ_6SeaW6LinOLToxDa-61" value="1" style="edgeLabel;html=1;align=center;verticalAlign=middle;resizable=0;points=[];" connectable="0" vertex="1" parent="rQZ_6SeaW6LinOLToxDa-11">
                    <mxGeometry x="-0.8247" y="-2" relative="1" as="geometry">
                        <mxPoint as="offset"/>
                    </mxGeometry>
                </mxCell>
                <mxCell id="rQZ_6SeaW6LinOLToxDa-12" value="includes" style="shape=rhombus;perimeter=rhombusPerimeter;whiteSpace=wrap;html=1;align=center;fillColor=#6d8764;strokeColor=#3A5431;" vertex="1" parent="1">
                    <mxGeometry x="-350" y="550" width="120" height="60" as="geometry"/>
                </mxCell>
                <mxCell id="rQZ_6SeaW6LinOLToxDa-13" value="" style="endArrow=none;html=1;rounded=0;entryX=0;entryY=0.5;entryDx=0;entryDy=0;exitX=0.5;exitY=0;exitDx=0;exitDy=0;fillColor=#d5e8d4;strokeColor=#82b366;" edge="1" parent="1" source="rQZ_6SeaW6LinOLToxDa-14" target="rQZ_6SeaW6LinOLToxDa-12">
                    <mxGeometry relative="1" as="geometry">
                        <mxPoint x="-530" y="670" as="sourcePoint"/>
                        <mxPoint x="-365" y="623.25" as="targetPoint"/>
                        <Array as="points">
                            <mxPoint x="-530" y="580"/>
                        </Array>
                    </mxGeometry>
                </mxCell>
                <mxCell id="rQZ_6SeaW6LinOLToxDa-62" value="1" style="edgeLabel;html=1;align=center;verticalAlign=middle;resizable=0;points=[];" connectable="0" vertex="1" parent="rQZ_6SeaW6LinOLToxDa-13">
                    <mxGeometry x="0.8881" relative="1" as="geometry">
                        <mxPoint as="offset"/>
                    </mxGeometry>
                </mxCell>
                <mxCell id="rQZ_6SeaW6LinOLToxDa-14" value="Payment" style="whiteSpace=wrap;html=1;align=center;fillColor=#647687;strokeColor=#314354;fontColor=#ffffff;" vertex="1" parent="1">
                    <mxGeometry x="-580" y="670" width="100" height="40" as="geometry"/>
                </mxCell>
                <mxCell id="rQZ_6SeaW6LinOLToxDa-16" value="" style="endArrow=none;html=1;rounded=0;exitX=1;exitY=0;exitDx=0;exitDy=0;entryX=0;entryY=0.5;entryDx=0;entryDy=0;fillColor=#e1d5e7;strokeColor=#9673a6;" edge="1" parent="1" source="rQZ_6SeaW6LinOLToxDa-14" target="rQZ_6SeaW6LinOLToxDa-25">
                    <mxGeometry relative="1" as="geometry">
                        <mxPoint x="-450" y="684.5" as="sourcePoint"/>
                        <mxPoint x="-430" y="650" as="targetPoint"/>
                    </mxGeometry>
                </mxCell>
                <mxCell id="rQZ_6SeaW6LinOLToxDa-17" value="" style="endArrow=none;html=1;rounded=0;entryX=0;entryY=1;entryDx=0;entryDy=0;exitX=1;exitY=0.5;exitDx=0;exitDy=0;fillColor=#e1d5e7;strokeColor=#9673a6;" edge="1" parent="1" source="rQZ_6SeaW6LinOLToxDa-24" target="rQZ_6SeaW6LinOLToxDa-14">
                    <mxGeometry relative="1" as="geometry">
                        <mxPoint x="-650" y="740" as="sourcePoint"/>
                        <mxPoint x="-590" y="710" as="targetPoint"/>
                    </mxGeometry>
                </mxCell>
                <mxCell id="rQZ_6SeaW6LinOLToxDa-18" value="" style="endArrow=none;html=1;rounded=0;entryX=0.25;entryY=0;entryDx=0;entryDy=0;exitX=0.655;exitY=0.947;exitDx=0;exitDy=0;exitPerimeter=0;fillColor=#e1d5e7;strokeColor=#9673a6;" edge="1" parent="1" source="rQZ_6SeaW6LinOLToxDa-43" target="rQZ_6SeaW6LinOLToxDa-14">
                    <mxGeometry relative="1" as="geometry">
                        <mxPoint x="-630" y="649" as="sourcePoint"/>
                        <mxPoint x="-590" y="684.5" as="targetPoint"/>
                    </mxGeometry>
                </mxCell>
                <mxCell id="rQZ_6SeaW6LinOLToxDa-19" value="" style="endArrow=none;html=1;rounded=0;exitX=1;exitY=1;exitDx=0;exitDy=0;entryX=0;entryY=0.5;entryDx=0;entryDy=0;fillColor=#e1d5e7;strokeColor=#9673a6;" edge="1" parent="1" source="rQZ_6SeaW6LinOLToxDa-14" target="rQZ_6SeaW6LinOLToxDa-44">
                    <mxGeometry relative="1" as="geometry">
                        <mxPoint x="-510" y="760" as="sourcePoint"/>
                        <mxPoint x="-435" y="720" as="targetPoint"/>
                    </mxGeometry>
                </mxCell>
                <mxCell id="rQZ_6SeaW6LinOLToxDa-21" value="" style="endArrow=none;html=1;rounded=0;entryX=0;entryY=0;entryDx=0;entryDy=0;exitX=1;exitY=0.5;exitDx=0;exitDy=0;fillColor=#e1d5e7;strokeColor=#9673a6;" edge="1" parent="1" source="rQZ_6SeaW6LinOLToxDa-23" target="rQZ_6SeaW6LinOLToxDa-14">
                    <mxGeometry relative="1" as="geometry">
                        <mxPoint x="-660" y="690" as="sourcePoint"/>
                        <mxPoint x="-610" y="690" as="targetPoint"/>
                    </mxGeometry>
                </mxCell>
                <mxCell id="rQZ_6SeaW6LinOLToxDa-23" value="due_date" style="ellipse;whiteSpace=wrap;html=1;align=center;fillColor=#76608a;strokeColor=#432D57;fontColor=#ffffff;" vertex="1" parent="1">
                    <mxGeometry x="-710" y="642.5" width="80" height="40" as="geometry"/>
                </mxCell>
                <mxCell id="rQZ_6SeaW6LinOLToxDa-24" value="payment_method" style="ellipse;whiteSpace=wrap;html=1;align=center;fillColor=#76608a;strokeColor=#432D57;fontColor=#ffffff;" vertex="1" parent="1">
                    <mxGeometry x="-722.5" y="700" width="105" height="40" as="geometry"/>
                </mxCell>
                <mxCell id="rQZ_6SeaW6LinOLToxDa-25" value="&lt;u&gt;payment_id&lt;/u&gt;" style="ellipse;whiteSpace=wrap;html=1;align=center;fillColor=#76608a;strokeColor=#432D57;fontColor=#ffffff;" vertex="1" parent="1">
                    <mxGeometry x="-440" y="645.63" width="85" height="33.75" as="geometry"/>
                </mxCell>
                <mxCell id="rQZ_6SeaW6LinOLToxDa-29" value="" style="endArrow=none;html=1;rounded=0;exitX=0.5;exitY=1;exitDx=0;exitDy=0;entryX=0.5;entryY=0;entryDx=0;entryDy=0;fillColor=#d5e8d4;strokeColor=#82b366;" edge="1" parent="1" source="rQZ_6SeaW6LinOLToxDa-14" target="rQZ_6SeaW6LinOLToxDa-30">
                    <mxGeometry relative="1" as="geometry">
                        <mxPoint x="-610" y="809.5" as="sourcePoint"/>
                        <mxPoint x="-530" y="800" as="targetPoint"/>
                    </mxGeometry>
                </mxCell>
                <mxCell id="rQZ_6SeaW6LinOLToxDa-63" value="1" style="edgeLabel;html=1;align=center;verticalAlign=middle;resizable=0;points=[];" connectable="0" vertex="1" parent="rQZ_6SeaW6LinOLToxDa-29">
                    <mxGeometry x="0.1632" y="1" relative="1" as="geometry">
                        <mxPoint as="offset"/>
                    </mxGeometry>
                </mxCell>
                <mxCell id="rQZ_6SeaW6LinOLToxDa-30" value="applies&amp;nbsp;" style="shape=rhombus;perimeter=rhombusPerimeter;whiteSpace=wrap;html=1;align=center;fillColor=#6d8764;strokeColor=#3A5431;" vertex="1" parent="1">
                    <mxGeometry x="-590" y="790" width="120" height="60" as="geometry"/>
                </mxCell>
                <mxCell id="rQZ_6SeaW6LinOLToxDa-31" value="" style="endArrow=none;html=1;rounded=0;exitX=0.5;exitY=1;exitDx=0;exitDy=0;entryX=0.5;entryY=0;entryDx=0;entryDy=0;fillColor=#d5e8d4;strokeColor=#82b366;" edge="1" parent="1" source="rQZ_6SeaW6LinOLToxDa-30" target="rQZ_6SeaW6LinOLToxDa-32">
                    <mxGeometry relative="1" as="geometry">
                        <mxPoint x="-430" y="1020" as="sourcePoint"/>
                        <mxPoint x="-530" y="920" as="targetPoint"/>
                    </mxGeometry>
                </mxCell>
                <mxCell id="rQZ_6SeaW6LinOLToxDa-64" value="1" style="edgeLabel;html=1;align=center;verticalAlign=middle;resizable=0;points=[];" connectable="0" vertex="1" parent="rQZ_6SeaW6LinOLToxDa-31">
                    <mxGeometry x="-0.1532" y="1" relative="1" as="geometry">
                        <mxPoint as="offset"/>
                    </mxGeometry>
                </mxCell>
                <mxCell id="rQZ_6SeaW6LinOLToxDa-32" value="Discount" style="whiteSpace=wrap;html=1;align=center;fillColor=#647687;strokeColor=#314354;fontColor=#ffffff;" vertex="1" parent="1">
                    <mxGeometry x="-580" y="940" width="100" height="40" as="geometry"/>
                </mxCell>
                <mxCell id="rQZ_6SeaW6LinOLToxDa-33" value="" style="endArrow=none;html=1;rounded=0;entryX=1;entryY=1;entryDx=0;entryDy=0;exitX=0.5;exitY=0;exitDx=0;exitDy=0;fillColor=#e1d5e7;strokeColor=#9673a6;" edge="1" parent="1" source="rQZ_6SeaW6LinOLToxDa-41" target="rQZ_6SeaW6LinOLToxDa-32">
                    <mxGeometry relative="1" as="geometry">
                        <mxPoint x="-440" y="1020" as="sourcePoint"/>
                        <mxPoint x="-580" y="910.45" as="targetPoint"/>
                    </mxGeometry>
                </mxCell>
                <mxCell id="rQZ_6SeaW6LinOLToxDa-34" value="" style="endArrow=none;html=1;rounded=0;exitX=0;exitY=0;exitDx=0;exitDy=0;entryX=1;entryY=0.5;entryDx=0;entryDy=0;" edge="1" parent="1" source="rQZ_6SeaW6LinOLToxDa-32" target="rQZ_6SeaW6LinOLToxDa-39">
                    <mxGeometry relative="1" as="geometry">
                        <mxPoint x="-430" y="1020" as="sourcePoint"/>
                        <mxPoint x="-640" y="910" as="targetPoint"/>
                    </mxGeometry>
                </mxCell>
                <mxCell id="rQZ_6SeaW6LinOLToxDa-35" value="" style="endArrow=none;html=1;rounded=0;exitX=0;exitY=1;exitDx=0;exitDy=0;entryX=1;entryY=0;entryDx=0;entryDy=0;fillColor=#e1d5e7;strokeColor=#9673a6;" edge="1" parent="1" source="rQZ_6SeaW6LinOLToxDa-32" target="rQZ_6SeaW6LinOLToxDa-47">
                    <mxGeometry relative="1" as="geometry">
                        <mxPoint x="-430" y="1020" as="sourcePoint"/>
                        <mxPoint x="-625.5" y="993" as="targetPoint"/>
                    </mxGeometry>
                </mxCell>
                <mxCell id="rQZ_6SeaW6LinOLToxDa-36" value="" style="endArrow=none;html=1;rounded=0;exitX=1;exitY=0;exitDx=0;exitDy=0;entryX=0;entryY=0.5;entryDx=0;entryDy=0;fillColor=#e1d5e7;strokeColor=#9673a6;" edge="1" parent="1" source="rQZ_6SeaW6LinOLToxDa-32" target="rQZ_6SeaW6LinOLToxDa-42">
                    <mxGeometry relative="1" as="geometry">
                        <mxPoint x="-430" y="1020" as="sourcePoint"/>
                        <mxPoint x="-410" y="910" as="targetPoint"/>
                    </mxGeometry>
                </mxCell>
                <mxCell id="rQZ_6SeaW6LinOLToxDa-37" value="" style="endArrow=none;html=1;rounded=0;exitX=0.5;exitY=1;exitDx=0;exitDy=0;entryX=0.5;entryY=0;entryDx=0;entryDy=0;fillColor=#e1d5e7;strokeColor=#9673a6;" edge="1" parent="1" source="rQZ_6SeaW6LinOLToxDa-32" target="rQZ_6SeaW6LinOLToxDa-38">
                    <mxGeometry relative="1" as="geometry">
                        <mxPoint x="-430" y="1020" as="sourcePoint"/>
                        <mxPoint x="-530" y="1020" as="targetPoint"/>
                    </mxGeometry>
                </mxCell>
                <mxCell id="rQZ_6SeaW6LinOLToxDa-38" value="start_date" style="ellipse;whiteSpace=wrap;html=1;align=center;fillColor=#76608a;strokeColor=#432D57;fontColor=#ffffff;" vertex="1" parent="1">
                    <mxGeometry x="-580" y="1030" width="100" height="40" as="geometry"/>
                </mxCell>
                <mxCell id="rQZ_6SeaW6LinOLToxDa-39" value="&lt;u&gt;discount_id&lt;/u&gt;" style="ellipse;whiteSpace=wrap;html=1;align=center;fillColor=#76608a;strokeColor=#432D57;fontColor=#ffffff;" vertex="1" parent="1">
                    <mxGeometry x="-685" y="900" width="85" height="40" as="geometry"/>
                </mxCell>
                <mxCell id="rQZ_6SeaW6LinOLToxDa-41" value="discount_name" style="ellipse;whiteSpace=wrap;html=1;align=center;fillColor=#76608a;strokeColor=#432D57;fontColor=#ffffff;" vertex="1" parent="1">
                    <mxGeometry x="-470" y="1000" width="100" height="40" as="geometry"/>
                </mxCell>
                <mxCell id="rQZ_6SeaW6LinOLToxDa-42" value="end_date" style="ellipse;whiteSpace=wrap;html=1;align=center;fillColor=#76608a;strokeColor=#432D57;fontColor=#ffffff;" vertex="1" parent="1">
                    <mxGeometry x="-455" y="900" width="80" height="40" as="geometry"/>
                </mxCell>
                <mxCell id="rQZ_6SeaW6LinOLToxDa-43" value="price" style="ellipse;whiteSpace=wrap;html=1;align=center;dashed=1;fillColor=#76608a;strokeColor=#432D57;fontColor=#ffffff;" vertex="1" parent="1">
                    <mxGeometry x="-650" y="596.25" width="80" height="33.75" as="geometry"/>
                </mxCell>
                <mxCell id="rQZ_6SeaW6LinOLToxDa-44" value="discount_id" style="ellipse;whiteSpace=wrap;html=1;align=center;fillColor=#76608a;strokeColor=#432D57;fontColor=#ffffff;" vertex="1" parent="1">
                    <mxGeometry x="-447.5" y="700" width="100" height="40" as="geometry"/>
                </mxCell>
                <mxCell id="rQZ_6SeaW6LinOLToxDa-47" value="&lt;span style=&quot;border-bottom: 1px dotted&quot;&gt;payment_id&lt;/span&gt;" style="ellipse;whiteSpace=wrap;html=1;align=center;fillColor=#76608a;strokeColor=#432D57;fontColor=#ffffff;" vertex="1" parent="1">
                    <mxGeometry x="-710" y="990" width="100" height="40" as="geometry"/>
                </mxCell>
                <mxCell id="rQZ_6SeaW6LinOLToxDa-65" value="" style="endArrow=none;html=1;rounded=0;fillColor=#e1d5e7;strokeColor=#9673a6;exitX=0.75;exitY=0;exitDx=0;exitDy=0;entryX=0.5;entryY=1;entryDx=0;entryDy=0;" edge="1" parent="1" source="rQZ_6SeaW6LinOLToxDa-14" target="rQZ_6SeaW6LinOLToxDa-68">
                    <mxGeometry relative="1" as="geometry">
                        <mxPoint x="-490" y="640" as="sourcePoint"/>
                        <mxPoint x="-470" y="630" as="targetPoint"/>
                    </mxGeometry>
                </mxCell>
                <mxCell id="rQZ_6SeaW6LinOLToxDa-68" value="&lt;span style=&quot;border-bottom: 1px dotted&quot;&gt;course_id&lt;/span&gt;" style="ellipse;whiteSpace=wrap;html=1;align=center;fillColor=#76608a;strokeColor=#432D57;fontColor=#ffffff;" vertex="1" parent="1">
                    <mxGeometry x="-495" y="603.13" width="70" height="33.75" as="geometry"/>
                </mxCell>
            </root>
        </mxGraphModel>
    </diagram>
</mxfile>